<svg width="48" height="63" fill="none" xmlns="http://www.w3.org/2000/svg"><path d="M35.348 8.068h8.56a3.062 3.062 0 0 1 3.063 3.062v47.474a3.062 3.062 0 0 1-3.062 3.062H4.089a3.062 3.062 0 0 1-3.06-3.062V11.13a3.062 3.062 0 0 1 3.062-3.062h8.694" stroke="#001E87" stroke-width=".883"/><path d="m18.456 43.934-5.518-5.516a1.12 1.12 0 0 1 0-1.58l1.532-1.527a1.12 1.12 0 0 1 1.582 0l3.195 3.197L31.95 25.803a1.116 1.116 0 0 1 1.578-.004l.004.004 1.53 1.53c.436.434.438 1.14.004 1.578l-.004.003-15.023 15.023a1.115 1.115 0 0 1-1.577.002l-.006-.006Z" fill="#001E87"/><path d="M37.279 10.435v2.36H10.723v-2.36a2.36 2.36 0 0 1 2.36-2.361h.057a2.444 2.444 0 0 0 2.228-1.473 9.447 9.447 0 0 1 17.254 0 2.447 2.447 0 0 0 2.228 1.473h.059a2.36 2.36 0 0 1 2.37 2.351v.01Z" stroke="#001E87" stroke-width=".883"/></svg>
