<svg width="71" height="46" fill="none" xmlns="http://www.w3.org/2000/svg"><path d="M54.068 13.34H31.854c-7.557 0-13.905 5.254-15.598 12.298.284.028.57.044.86.044h6.934c1.39-2.916 4.365-4.936 7.804-4.936h22.214c4.764 0 8.64 3.875 8.64 8.639 0 4.763-3.876 8.638-8.64 8.638H31.854c-3.44 0-6.415-2.02-7.804-4.936h-6.934c-.294 0-.585-.011-.876-.027 1.667 7.08 8.033 12.368 15.614 12.368h22.214c8.847 0 16.044-7.197 16.044-16.043 0-8.847-7.197-16.044-16.044-16.044Z" stroke="#001E87"/><path d="M53.994 20.745H47.06c-1.39 2.916-4.365 4.937-7.804 4.937H17.042c-4.764 0-8.64-3.875-8.64-8.639 0-4.764 3.876-8.639 8.64-8.639h22.214c3.44 0 6.414 2.02 7.803 4.937h6.935c.293 0 .585.009.875.024C53.202 6.287 46.837 1 39.256 1H17.042C8.195 1 .998 8.197.998 17.043c0 8.847 7.197 16.044 16.044 16.044h22.214c7.557 0 13.906-5.253 15.597-12.299a8.704 8.704 0 0 0-.86-.043Z" stroke="#001E87"/></svg>
